<svg xmlns="http://www.w3.org/2000/svg" xmlns:xlink="http://www.w3.org/1999/xlink" width="77" zoomAndPan="magnify" viewBox="0 0 57.75 30.000001" height="40" preserveAspectRatio="xMidYMid meet" version="1.0"><defs><g/><clipPath id="8641326094"><path d="M 40 2 L 56 2 L 56 26 L 40 26 Z M 40 2 " clip-rule="nonzero"/></clipPath><clipPath id="951b77e1bd"><path d="M 49.820312 0.00390625 L 59.550781 22.679688 L 47.546875 27.832031 L 37.8125 5.15625 Z M 49.820312 0.00390625 " clip-rule="nonzero"/></clipPath><clipPath id="b79e73b229"><path d="M 49.820312 0.00390625 L 59.550781 22.679688 L 47.546875 27.832031 L 37.8125 5.15625 Z M 49.820312 0.00390625 " clip-rule="nonzero"/></clipPath></defs><g clip-path="url(#8641326094)"><g clip-path="url(#951b77e1bd)"><g clip-path="url(#b79e73b229)"><path fill="#facc15" d="M 45.199219 17.398438 C 43.695312 16.496094 42.183594 14.667969 41.171875 12.3125 C 40.152344 9.9375 39.875 7.5625 40.269531 5.847656 C 40.539062 4.675781 41.128906 3.804688 42 3.429688 C 42.0625 3.402344 43.730469 2.617188 43.898438 2.542969 C 44.777344 2.167969 45.820312 2.339844 46.867188 2.953125 C 48.394531 3.855469 49.9375 5.703125 50.960938 8.09375 C 51.269531 8.8125 51.511719 9.53125 51.683594 10.230469 C 52.054688 10.261719 52.375 10.289062 52.445312 10.296875 C 53.394531 10.410156 54.210938 11.082031 54.808594 12.136719 C 55.683594 13.683594 56.09375 16.054688 55.785156 18.636719 C 55.480469 21.21875 54.527344 23.429688 53.316406 24.722656 C 52.488281 25.609375 51.535156 26.070312 50.582031 25.957031 C 50.464844 25.945312 48.554688 25.6875 48.507812 25.683594 C 47.566406 25.570312 46.757812 24.902344 46.164062 23.855469 C 45.300781 22.320312 44.894531 19.964844 45.199219 17.398438 Z M 51.355469 10.203125 C 51.1875 9.554688 50.960938 8.894531 50.679688 8.234375 C 49.683594 5.914062 48.195312 4.113281 46.710938 3.238281 C 45.75 2.671875 44.792969 2.492188 43.984375 2.839844 C 43.175781 3.1875 42.644531 4.003906 42.394531 5.089844 C 42.007812 6.769531 42.285156 9.085938 43.28125 11.410156 C 43.917969 12.890625 44.753906 14.160156 45.660156 15.113281 C 45.753906 14.800781 45.855469 14.496094 45.964844 14.207031 C 45.222656 13.417969 44.53125 12.355469 44 11.117188 C 43.128906 9.089844 42.898438 7.085938 43.269531 5.707031 C 43.527344 4.75 44.070312 4.085938 44.878906 3.886719 C 45.578125 3.714844 46.390625 3.914062 47.195312 4.425781 C 48.371094 5.171875 49.539062 6.574219 50.3125 8.375 C 50.570312 8.976562 50.765625 9.578125 50.902344 10.164062 C 51.042969 10.175781 51.199219 10.1875 51.355469 10.203125 Z M 45.585938 15.378906 C 44.621094 14.398438 43.730469 13.066406 43.0625 11.503906 C 42.042969 9.128906 41.761719 6.753906 42.15625 5.035156 C 42.332031 4.277344 42.640625 3.644531 43.074219 3.191406 C 42.589844 3.417969 42.101562 3.648438 42.101562 3.648438 C 42.097656 3.648438 42.097656 3.652344 42.097656 3.652344 C 41.289062 4 40.757812 4.8125 40.503906 5.902344 C 40.117188 7.578125 40.398438 9.898438 41.394531 12.21875 C 42.363281 14.472656 43.792969 16.238281 45.230469 17.136719 C 45.316406 16.527344 45.433594 15.9375 45.585938 15.378906 Z M 46.0625 13.957031 C 46.203125 13.609375 46.355469 13.28125 46.519531 12.96875 C 45.953125 12.394531 45.425781 11.605469 45.023438 10.671875 C 44.40625 9.234375 44.246094 7.808594 44.5 6.808594 C 44.683594 6.113281 45.066406 5.621094 45.636719 5.449219 C 46.148438 5.296875 46.746094 5.429688 47.339844 5.796875 C 48.195312 6.332031 49.050781 7.355469 49.621094 8.675781 C 49.824219 9.15625 49.976562 9.636719 50.074219 10.101562 C 50.167969 10.101562 50.261719 10.105469 50.355469 10.117188 C 50.371094 10.117188 50.484375 10.128906 50.648438 10.140625 C 50.515625 9.59375 50.332031 9.03125 50.089844 8.46875 C 49.339844 6.71875 48.207031 5.351562 47.066406 4.628906 C 46.324219 4.160156 45.582031 3.960938 44.9375 4.121094 C 44.210938 4.300781 43.734375 4.910156 43.503906 5.769531 C 43.140625 7.109375 43.375 9.050781 44.21875 11.019531 C 44.722656 12.191406 45.367188 13.195312 46.0625 13.957031 Z M 46.640625 12.75 C 46.8125 12.445312 46.996094 12.164062 47.1875 11.90625 C 46.738281 11.546875 46.304688 10.96875 45.996094 10.25 C 45.621094 9.375 45.519531 8.503906 45.671875 7.882812 C 45.78125 7.441406 46.019531 7.121094 46.367188 6.996094 C 46.691406 6.878906 47.078125 6.949219 47.460938 7.179688 C 48 7.503906 48.542969 8.152344 48.902344 8.988281 C 49.085938 9.417969 49.199219 9.84375 49.25 10.242188 C 49.441406 10.175781 49.636719 10.132812 49.832031 10.113281 C 49.734375 9.675781 49.589844 9.222656 49.398438 8.773438 C 48.851562 7.503906 48.035156 6.515625 47.210938 6.003906 C 46.683594 5.675781 46.15625 5.546875 45.707031 5.679688 C 45.210938 5.828125 44.890625 6.265625 44.734375 6.871094 C 44.488281 7.828125 44.652344 9.195312 45.246094 10.578125 C 45.621094 11.453125 46.113281 12.199219 46.640625 12.75 Z M 47.332031 11.714844 C 47.4375 11.585938 47.542969 11.460938 47.652344 11.34375 C 48.078125 10.886719 48.542969 10.539062 49.019531 10.332031 C 48.976562 9.9375 48.863281 9.511719 48.679688 9.085938 C 48.34375 8.300781 47.839844 7.691406 47.335938 7.386719 C 47.023438 7.199219 46.710938 7.125 46.449219 7.222656 C 46.171875 7.320312 45.992188 7.585938 45.90625 7.941406 C 45.765625 8.519531 45.867188 9.335938 46.21875 10.15625 C 46.507812 10.832031 46.910156 11.378906 47.332031 11.714844 Z M 55.46875 18.617188 C 55.769531 16.109375 55.378906 13.804688 54.535156 12.304688 C 53.984375 11.332031 53.246094 10.703125 52.371094 10.597656 C 51.496094 10.496094 50.628906 10.933594 49.867188 11.75 C 48.695312 13.011719 47.777344 15.160156 47.480469 17.667969 C 47.179688 20.175781 47.570312 22.480469 48.414062 23.976562 C 48.964844 24.949219 49.703125 25.582031 50.578125 25.6875 C 51.453125 25.789062 52.320312 25.347656 53.082031 24.53125 C 54.253906 23.273438 55.171875 21.125 55.46875 18.617188 Z M 55.085938 18.554688 C 54.851562 20.503906 54.128906 22.183594 53.210938 23.238281 C 52.582031 23.960938 51.863281 24.386719 51.144531 24.425781 C 50.308594 24.46875 49.597656 23.996094 49.082031 23.15625 C 48.332031 21.945312 47.984375 19.964844 48.246094 17.773438 C 48.507812 15.582031 49.308594 13.730469 50.320312 12.722656 C 51.019531 12.023438 51.824219 11.722656 52.625 11.953125 C 53.3125 12.152344 53.914062 12.730469 54.359375 13.578125 C 55.003906 14.808594 55.316406 16.609375 55.085938 18.554688 Z M 54.84375 18.527344 C 55.070312 16.636719 54.773438 14.886719 54.144531 13.6875 C 53.738281 12.910156 53.191406 12.367188 52.558594 12.183594 C 51.835938 11.976562 51.121094 12.265625 50.488281 12.894531 C 49.507812 13.875 48.738281 15.671875 48.484375 17.800781 C 48.230469 19.929688 48.558594 21.851562 49.285156 23.03125 C 49.75 23.78125 50.382812 24.226562 51.128906 24.183594 C 51.792969 24.152344 52.449219 23.746094 53.027344 23.078125 C 53.921875 22.054688 54.621094 20.417969 54.84375 18.527344 Z M 54.332031 18.472656 C 54.164062 19.898438 53.632812 21.128906 52.960938 21.886719 C 52.492188 22.410156 51.957031 22.710938 51.425781 22.714844 C 50.832031 22.71875 50.320312 22.359375 49.949219 21.742188 C 49.417969 20.867188 49.171875 19.457031 49.355469 17.902344 C 49.542969 16.347656 50.113281 15.03125 50.835938 14.292969 C 51.339844 13.78125 51.917969 13.546875 52.496094 13.683594 C 53.015625 13.808594 53.464844 14.222656 53.796875 14.835938 C 54.273438 15.726562 54.503906 17.042969 54.332031 18.472656 Z M 54.09375 18.441406 C 54.257812 17.070312 54.042969 15.804688 53.585938 14.953125 C 53.292969 14.40625 52.898438 14.027344 52.441406 13.917969 C 51.941406 13.800781 51.445312 14.019531 51.007812 14.464844 C 50.3125 15.167969 49.773438 16.4375 49.59375 17.929688 C 49.417969 19.421875 49.648438 20.777344 50.15625 21.621094 C 50.476562 22.152344 50.910156 22.476562 51.425781 22.472656 C 51.898438 22.46875 52.367188 22.191406 52.777344 21.726562 C 53.425781 20.996094 53.929688 19.816406 54.09375 18.441406 Z M 53.554688 18.382812 C 53.445312 19.289062 53.109375 20.0625 52.683594 20.53125 C 52.382812 20.863281 52.03125 21.042969 51.6875 21.027344 C 51.316406 21.007812 51 20.773438 50.769531 20.378906 C 50.449219 19.828125 50.292969 18.96875 50.40625 18.023438 C 50.519531 17.074219 50.871094 16.269531 51.3125 15.8125 C 51.628906 15.480469 51.992188 15.324219 52.355469 15.386719 C 52.695312 15.449219 52.996094 15.703125 53.210938 16.09375 C 53.515625 16.644531 53.660156 17.476562 53.554688 18.382812 Z M 53.316406 18.355469 C 53.414062 17.507812 53.285156 16.726562 53 16.210938 C 52.824219 15.890625 52.589844 15.675781 52.3125 15.625 C 52.023438 15.574219 51.738281 15.714844 51.484375 15.976562 C 51.074219 16.410156 50.75 17.164062 50.648438 18.050781 C 50.542969 18.9375 50.675781 19.742188 50.976562 20.257812 C 51.160156 20.570312 51.40625 20.769531 51.699219 20.785156 C 51.980469 20.800781 52.257812 20.640625 52.503906 20.371094 C 52.902344 19.933594 53.214844 19.203125 53.316406 18.355469 Z M 52.722656 18.289062 C 52.679688 18.660156 52.539062 18.980469 52.363281 19.171875 C 52.226562 19.320312 52.066406 19.390625 51.910156 19.378906 C 51.746094 19.363281 51.605469 19.261719 51.503906 19.082031 C 51.375 18.859375 51.308594 18.511719 51.355469 18.128906 C 51.398438 17.75 51.542969 17.425781 51.722656 17.238281 C 51.863281 17.085938 52.027344 17.019531 52.1875 17.042969 C 52.34375 17.0625 52.480469 17.171875 52.578125 17.347656 C 52.703125 17.570312 52.765625 17.914062 52.722656 18.289062 Z M 52.484375 18.257812 C 52.519531 17.945312 52.476562 17.65625 52.367188 17.464844 C 52.3125 17.363281 52.242188 17.292969 52.152344 17.28125 C 52.0625 17.269531 51.976562 17.320312 51.898438 17.402344 C 51.746094 17.5625 51.632812 17.835938 51.59375 18.160156 C 51.554688 18.480469 51.601562 18.773438 51.710938 18.964844 C 51.769531 19.0625 51.839844 19.128906 51.929688 19.136719 C 52.019531 19.144531 52.105469 19.09375 52.183594 19.007812 C 52.332031 18.847656 52.445312 18.574219 52.484375 18.257812 Z M 51.40625 10.449219 C 50.875 10.402344 50.335938 10.355469 50.335938 10.355469 C 50.332031 10.355469 50.332031 10.355469 50.332031 10.355469 C 49.457031 10.253906 48.589844 10.691406 47.828125 11.507812 C 46.652344 12.769531 45.734375 14.917969 45.4375 17.425781 C 45.140625 19.933594 45.527344 22.238281 46.375 23.734375 C 46.921875 24.707031 47.664062 25.339844 48.539062 25.445312 C 48.539062 25.445312 49.046875 25.511719 49.558594 25.578125 C 49.035156 25.265625 48.578125 24.757812 48.203125 24.097656 C 47.339844 22.5625 46.933594 20.207031 47.238281 17.640625 C 47.542969 15.070312 48.488281 12.875 49.691406 11.585938 C 50.222656 11.015625 50.804688 10.625 51.40625 10.449219 Z M 48.132812 9.324219 C 48.28125 9.667969 48.320312 10.015625 48.261719 10.269531 C 48.21875 10.464844 48.117188 10.609375 47.976562 10.675781 C 47.828125 10.742188 47.652344 10.726562 47.476562 10.625 C 47.25 10.492188 47.023438 10.222656 46.871094 9.871094 C 46.71875 9.519531 46.679688 9.167969 46.742188 8.914062 C 46.789062 8.714844 46.894531 8.574219 47.046875 8.511719 C 47.191406 8.453125 47.367188 8.480469 47.539062 8.582031 C 47.761719 8.714844 47.984375 8.976562 48.132812 9.324219 Z M 47.914062 9.417969 C 47.789062 9.128906 47.601562 8.898438 47.414062 8.789062 C 47.316406 8.730469 47.21875 8.703125 47.136719 8.738281 C 47.050781 8.769531 47.003906 8.859375 46.976562 8.96875 C 46.925781 9.183594 46.964844 9.480469 47.089844 9.777344 C 47.21875 10.074219 47.40625 10.304688 47.59375 10.414062 C 47.695312 10.472656 47.789062 10.496094 47.871094 10.457031 C 47.953125 10.417969 48.003906 10.328125 48.027344 10.214844 C 48.074219 10.003906 48.039062 9.710938 47.914062 9.417969 Z M 47.914062 9.417969 " fill-opacity="1" fill-rule="evenodd"/></g></g></g><g fill="#facc15" fill-opacity="1"><g transform="translate(0.810483, 12.93872)"><g><path d="M 0.65625 0 L 0.65625 -9.484375 L 6.546875 -9.484375 C 7.492188 -9.484375 8.234375 -9.257812 8.765625 -8.8125 C 9.304688 -8.375 9.578125 -7.765625 9.578125 -6.984375 C 9.578125 -6.484375 9.46875 -6.039062 9.25 -5.65625 C 9.039062 -5.28125 8.742188 -4.988281 8.359375 -4.78125 C 8.804688 -4.582031 9.160156 -4.285156 9.421875 -3.890625 C 9.691406 -3.503906 9.828125 -3.046875 9.828125 -2.515625 C 9.828125 -2.015625 9.703125 -1.570312 9.453125 -1.1875 C 9.203125 -0.8125 8.84375 -0.519531 8.375 -0.3125 C 7.914062 -0.101562 7.378906 0 6.765625 0 Z M 4.328125 -2.40625 L 5.3125 -2.40625 C 5.800781 -2.40625 6.046875 -2.617188 6.046875 -3.046875 C 6.046875 -3.484375 5.800781 -3.703125 5.3125 -3.703125 L 4.328125 -3.703125 Z M 4.328125 -5.859375 L 5.21875 -5.859375 C 5.695312 -5.859375 5.9375 -6.066406 5.9375 -6.484375 C 5.9375 -6.898438 5.695312 -7.109375 5.21875 -7.109375 L 4.328125 -7.109375 Z M 4.328125 -5.859375 "/></g></g></g><g fill="#facc15" fill-opacity="1"><g transform="translate(10.92548, 12.93872)"><g><path d="M 0.65625 0 L 0.65625 -9.484375 L 7.890625 -9.484375 L 7.890625 -6.875 L 4.359375 -6.875 L 4.359375 -6.015625 L 7.5625 -6.015625 L 7.5625 -3.53125 L 4.359375 -3.53125 L 4.359375 -2.65625 L 8 -2.65625 L 8 0 Z M 0.65625 0 "/></g></g></g><g fill="#facc15" fill-opacity="1"><g transform="translate(19.361418, 12.93872)"><g><path d="M 2.96875 0 L 2.96875 -6.0625 L 0.359375 -6.0625 L 0.359375 -9.484375 L 9.4375 -9.484375 L 9.4375 -6.0625 L 6.84375 -6.0625 L 6.84375 0 Z M 2.96875 0 "/></g></g></g><g fill="#facc15" fill-opacity="1"><g transform="translate(27.986694, 12.93872)"><g><path d="M 0.015625 0 L 3.359375 -9.484375 L 7.5625 -9.484375 L 10.890625 0 L 6.90625 0 L 6.578125 -1.0625 L 4.28125 -1.0625 L 3.953125 0 Z M 4.78125 -3.359375 L 6.09375 -3.359375 L 5.5 -5.640625 L 5.375 -5.640625 Z M 4.78125 -3.359375 "/></g></g></g><g fill="#facc15" fill-opacity="1"><g transform="translate(0.810483, 24.551623)"><g><path d="M 0.65625 0 L 0.65625 -9.484375 L 5.234375 -9.484375 C 6.304688 -9.484375 7.238281 -9.285156 8.03125 -8.890625 C 8.820312 -8.503906 9.429688 -7.957031 9.859375 -7.25 C 10.296875 -6.539062 10.515625 -5.703125 10.515625 -4.734375 C 10.515625 -3.773438 10.296875 -2.941406 9.859375 -2.234375 C 9.429688 -1.523438 8.820312 -0.972656 8.03125 -0.578125 C 7.238281 -0.191406 6.304688 0 5.234375 0 Z M 4.453125 -3.328125 L 5.09375 -3.328125 C 5.582031 -3.328125 5.96875 -3.445312 6.25 -3.6875 C 6.53125 -3.9375 6.671875 -4.285156 6.671875 -4.734375 C 6.671875 -5.191406 6.53125 -5.539062 6.25 -5.78125 C 5.96875 -6.03125 5.582031 -6.15625 5.09375 -6.15625 L 4.453125 -6.15625 Z M 4.453125 -3.328125 "/></g></g></g><g fill="#facc15" fill-opacity="1"><g transform="translate(11.006615, 24.551623)"><g><path d="M 0.015625 0 L 3.359375 -9.484375 L 7.5625 -9.484375 L 10.890625 0 L 6.90625 0 L 6.578125 -1.0625 L 4.28125 -1.0625 L 3.953125 0 Z M 4.78125 -3.359375 L 6.09375 -3.359375 L 5.5 -5.640625 L 5.375 -5.640625 Z M 4.78125 -3.359375 "/></g></g></g><g fill="#facc15" fill-opacity="1"><g transform="translate(21.920524, 24.551623)"><g><path d="M 0.65625 0 L 0.65625 -9.484375 L 3.796875 -9.484375 L 6.484375 -6.0625 L 9.171875 -9.484375 L 12.296875 -9.484375 L 12.296875 0 L 8.578125 0 L 8.578125 -1.890625 L 8.65625 -3.484375 L 8.53125 -3.515625 L 7.390625 -1.890625 L 5.59375 -1.890625 L 4.4375 -3.515625 L 4.328125 -3.5 L 4.390625 -1.890625 L 4.390625 0 Z M 0.65625 0 "/></g></g></g><g fill="#facc15" fill-opacity="1"><g transform="translate(34.879097, 24.551623)"><g><path d="M 0.65625 0 L 0.65625 -9.484375 L 7.890625 -9.484375 L 7.890625 -6.875 L 4.359375 -6.875 L 4.359375 -6.015625 L 7.5625 -6.015625 L 7.5625 -3.53125 L 4.359375 -3.53125 L 4.359375 -2.65625 L 8 -2.65625 L 8 0 Z M 0.65625 0 "/></g></g></g></svg>